# Blender v2.90.1 OBJ File: ''
# www.blender.org
mtllib Trinket.mtl
o Torus
v 0.125000 -0.125000 -0.125000
v 0.125000 0.125000 -0.125000
v 0.125000 -0.125000 0.125000
v 0.125000 0.125000 0.125000
v -0.125000 -0.125000 -0.125000
v -0.125000 0.125000 -0.125000
v -0.125000 -0.125000 0.125000
v -0.125000 0.125000 0.125000
v 0.250000 0.000000 0.000000
v 0.000000 0.250000 0.000000
v 0.000000 -0.250000 0.000000
v 0.000000 0.000000 -0.250000
v 0.000000 0.000000 0.250000
v -0.250000 0.000000 0.000000
v -0.125000 -0.125000 0.000000
v -0.125000 0.000000 0.125000
v 0.000000 0.125000 0.125000
v 0.125000 0.000000 0.125000
v 0.125000 0.000000 -0.125000
v -0.125000 0.000000 -0.125000
v -0.125000 0.125000 0.000000
v 0.000000 0.125000 -0.125000
v 0.125000 0.125000 0.000000
v 0.125000 -0.125000 0.000000
v 0.000000 -0.125000 0.125000
v 0.000000 -0.125000 -0.125000
vt 0.000000 0.000000
vt 0.000000 0.000000
vt 0.000000 0.000000
vt 0.000000 0.000000
vt 0.000000 0.000000
vt 0.000000 0.000000
vt 0.000000 0.000000
vt 0.000000 0.000000
vt 0.000000 0.000000
vt 0.000000 0.000000
vt 0.000000 0.000000
vt 0.000000 0.000000
vt 0.000000 0.000000
vt 0.000000 0.000000
vt 0.000000 0.000000
vt 0.000000 0.000000
vt 0.000000 0.000000
vt 0.000000 0.000000
vt 0.000000 0.000000
vt 0.000000 0.000000
vt 0.000000 0.000000
vt 0.000000 0.000000
vt 0.000000 0.000000
vt 0.000000 0.000000
vt 0.000000 0.000000
vt 0.000000 0.000000
vn 0.0000 1.0000 0.0000
vn 1.0000 0.0000 0.0000
vn 0.0000 0.0000 -1.0000
vn 0.0000 0.0000 1.0000
vn -1.0000 0.0000 0.0000
vn 0.0000 -1.0000 0.0000
vn -0.5774 0.5774 -0.5774
vn 0.5774 0.5774 -0.5774
vn -0.5774 0.5774 0.5774
vn 0.5774 0.5774 0.5774
vn 0.5774 -0.5774 -0.5774
vn -0.5774 -0.5774 -0.5774
vn -0.5774 -0.5774 0.5774
vn 0.5774 -0.5774 0.5774
usemtl Material.001
s off
f 22/1/1 23/2/1 2/3/1
f 23/2/2 19/4/2 2/3/2
f 19/4/3 22/1/3 2/3/3
f 18/5/4 4/6/4 17/7/4
f 20/8/5 5/9/5 15/10/5
f 16/11/5 15/10/5 7/12/5
f 25/13/4 3/14/4 18/5/4
f 20/8/3 6/15/3 22/1/3
f 20/8/5 21/16/5 6/15/5
f 21/16/1 22/1/1 6/15/1
f 16/11/5 8/17/5 21/16/5
f 17/7/4 8/17/4 16/11/4
f 21/16/1 8/17/1 17/7/1
f 23/2/2 4/6/2 18/5/2
f 24/18/2 1/19/2 19/4/2
f 19/4/3 1/19/3 26/20/3
f 24/18/6 26/20/6 1/19/6
f 15/10/6 5/9/6 26/20/6
f 20/8/3 26/20/3 5/9/3
f 25/13/4 16/11/4 7/12/4
f 7/12/6 15/10/6 25/13/6
f 18/5/2 3/14/2 24/18/2
f 25/13/6 24/18/6 3/14/6
f 4/6/1 23/2/1 17/7/1
usemtl Material.002
f 12/21/7 20/8/7 22/1/7
f 23/2/8 9/22/8 19/4/8
f 14/23/9 16/11/9 21/16/9
f 19/4/8 12/21/8 22/1/8
f 22/1/8 10/24/8 23/2/8
f 21/16/7 20/8/7 14/23/7
f 21/16/7 10/24/7 22/1/7
f 17/7/9 10/24/9 21/16/9
f 16/11/9 13/25/9 17/7/9
f 10/24/10 17/7/10 23/2/10
f 18/5/10 9/22/10 23/2/10
f 17/7/10 13/25/10 18/5/10
f 26/20/11 24/18/11 11/26/11
f 19/4/11 26/20/11 12/21/11
f 19/4/11 9/22/11 24/18/11
f 12/21/12 26/20/12 20/8/12
f 15/10/12 14/23/12 20/8/12
f 11/26/12 15/10/12 26/20/12
f 11/26/13 25/13/13 15/10/13
f 16/11/13 25/13/13 13/25/13
f 15/10/13 16/11/13 14/23/13
f 18/5/14 24/18/14 9/22/14
f 18/5/14 13/25/14 25/13/14
f 11/26/14 24/18/14 25/13/14
