# Blender v2.90.1 OBJ File: ''
# www.blender.org
mtllib TurretBase.mtl
o Turret.001_Turret
v -0.176777 0.100000 0.176777
v -0.176777 -0.000000 0.176777
v -0.138893 0.100000 0.207868
v -0.138893 -0.000000 0.207868
v -0.095671 0.100000 0.230970
v -0.095671 -0.000000 0.230970
v -0.048773 0.100000 0.245197
v -0.048773 -0.000000 0.245197
v -0.000000 0.100000 0.250000
v -0.000000 -0.000000 0.250000
v -0.207868 -0.000000 0.138893
v -0.207868 0.100000 0.138893
v -0.230970 -0.000000 0.095671
v -0.230970 0.100000 0.095671
v -0.245196 -0.000000 0.048773
v -0.245196 0.100000 0.048773
v -0.250000 -0.000000 0.000001
v -0.250000 0.100000 0.000001
v -0.245196 -0.000000 -0.048772
v -0.245196 0.100000 -0.048772
v -0.230970 -0.000000 -0.095670
v -0.230970 0.100000 -0.095670
v -0.207868 -0.000000 -0.138892
v -0.207868 0.100000 -0.138892
v -0.176777 -0.000000 -0.176776
v -0.176777 0.100000 -0.176776
v -0.138893 -0.000000 -0.207867
v -0.138893 0.100000 -0.207867
v -0.095671 -0.000000 -0.230969
v -0.095671 0.100000 -0.230969
v -0.048773 -0.000000 -0.245196
v -0.048773 0.100000 -0.245196
v -0.000000 -0.000000 -0.250000
v -0.000000 0.100000 -0.250000
v 0.048773 -0.000000 -0.245196
v 0.048773 0.100000 -0.245196
v 0.095671 -0.000000 -0.230969
v 0.095671 0.100000 -0.230969
v 0.138893 -0.000000 -0.207867
v 0.138893 0.100000 -0.207867
v 0.176777 -0.000000 -0.176776
v 0.176777 0.100000 -0.176776
v 0.207867 -0.000000 -0.138892
v 0.207867 0.100000 -0.138892
v 0.230970 -0.000000 -0.095670
v 0.230970 0.100000 -0.095670
v 0.245196 -0.000000 -0.048772
v 0.245196 0.100000 -0.048772
v 0.250000 -0.000000 0.000001
v 0.250000 0.100000 0.000001
v 0.245196 -0.000000 0.048773
v 0.245196 0.100000 0.048773
v 0.230970 -0.000000 0.095672
v 0.230970 0.100000 0.095672
v 0.207867 -0.000000 0.138893
v 0.207867 0.100000 0.138893
v 0.176776 -0.000000 0.176777
v 0.176776 0.100000 0.176777
v 0.138892 -0.000000 0.207868
v 0.138892 0.100000 0.207868
v 0.095670 -0.000000 0.230971
v 0.095670 0.100000 0.230971
v 0.048772 -0.000000 0.245197
v 0.048772 0.100000 0.245197
v -0.104170 0.150000 0.155901
v -0.071753 0.150000 0.173228
v -0.036580 0.150000 0.183898
v -0.000000 0.150000 0.187500
v -0.132583 0.150000 0.132583
v -0.155901 0.150000 0.104170
v -0.173227 0.150000 0.071754
v -0.183897 0.150000 0.036580
v -0.187500 0.150000 0.000001
v -0.183897 0.150000 -0.036579
v -0.173227 0.150000 -0.071753
v -0.155901 0.150000 -0.104169
v -0.132583 0.150000 -0.132582
v -0.104169 0.150000 -0.155900
v -0.071753 0.150000 -0.173227
v -0.036579 0.150000 -0.183897
v -0.000000 0.150000 -0.187499
v 0.036579 0.150000 -0.183897
v 0.071753 0.150000 -0.173227
v 0.104169 0.150000 -0.155900
v 0.132583 0.150000 -0.132582
v 0.155901 0.150000 -0.104169
v 0.173227 0.150000 -0.071753
v 0.183897 0.150000 -0.036579
v 0.187500 0.150000 0.000001
v 0.183897 0.150000 0.036580
v 0.173227 0.150000 0.071754
v 0.155900 0.150000 0.104170
v 0.132582 0.150000 0.132583
v 0.104169 0.150000 0.155901
v 0.071753 0.150000 0.173228
v 0.036579 0.150000 0.183898
vt 0.981010 0.646006
vt 0.821309 0.596160
vt 0.833403 0.531572
vt 0.999893 0.549526
vt 0.889082 0.819184
vt 0.761027 0.711754
vt 0.796947 0.656996
vt 0.943680 0.737092
vt 0.832873 0.466430
vt 0.999893 0.451291
vt 0.819927 0.401211
vt 0.980926 0.354493
vt 0.794798 0.340010
vt 0.943535 0.263090
vt 0.758290 0.285212
vt 0.888933 0.180771
vt 0.711748 0.238969
vt 0.819179 0.110915
vt 0.656991 0.203048
vt 0.737088 0.056317
vt 0.596156 0.178684
vt 0.646003 0.018985
vt 0.531568 0.166589
vt 0.549522 0.000101
vt 0.466426 0.167119
vt 0.451287 0.000100
vt 0.401206 0.180065
vt 0.354488 0.019066
vt 0.340005 0.205195
vt 0.263084 0.056458
vt 0.285207 0.241703
vt 0.180766 0.111061
vt 0.238966 0.288247
vt 0.110911 0.180816
vt 0.203046 0.343005
vt 0.056313 0.262908
vt 0.178684 0.403840
vt 0.018983 0.353994
vt 0.166590 0.468428
vt 0.000100 0.450474
vt 0.167120 0.533570
vt 0.000100 0.548709
vt 0.180066 0.598789
vt 0.019067 0.645508
vt 0.205196 0.659990
vt 0.056458 0.736911
vt 0.241703 0.714789
vt 0.111061 0.819229
vt 0.288246 0.761031
vt 0.180815 0.889085
vt 0.343003 0.796953
vt 0.262906 0.943684
vt 0.403838 0.821316
vt 0.353991 0.981015
vt 0.468426 0.833411
vt 0.450471 0.999900
vt 0.533568 0.832881
vt 0.548707 0.999900
vt 0.598787 0.819935
vt 0.645506 0.980933
vt 0.659988 0.794805
vt 0.736909 0.943542
vt 0.714786 0.758296
vt 0.819228 0.888938
vt 0.611287 0.293117
vt 0.569143 0.276802
vt 0.276803 0.430851
vt 0.269306 0.475908
vt 0.475907 0.730695
vt 0.522442 0.729326
vt 0.706877 0.611294
vt 0.723190 0.569150
vt 0.721135 0.431232
vt 0.704831 0.388232
vt 0.388227 0.295160
vt 0.349885 0.319525
vt 0.319527 0.650111
vt 0.351090 0.682257
vt 0.682252 0.648911
vt 0.524087 0.269305
vt 0.270676 0.522445
vt 0.568766 0.721144
vt 0.680466 0.349889
vt 0.317741 0.351089
vt 0.388707 0.706883
vt 0.477551 0.270674
vt 0.278858 0.568769
vt 0.611766 0.704840
vt 0.648903 0.317743
vt 0.293116 0.388707
vt 0.430850 0.723198
vt 0.730687 0.524092
vt 0.729317 0.477555
vt 0.431227 0.278856
vt 0.295162 0.611769
vt 0.650108 0.680475
vn -0.4714 0.0000 0.8819
vn -0.0980 0.0000 0.9952
vn -0.2903 0.0000 0.9569
vn -0.6344 0.0000 0.7730
vn -0.7730 0.0000 0.6344
vn -0.8819 0.0000 0.4714
vn -0.9569 0.0000 0.2903
vn -0.9952 0.0000 0.0980
vn -0.9952 0.0000 -0.0980
vn -0.9569 0.0000 -0.2903
vn -0.8819 0.0000 -0.4714
vn -0.7730 0.0000 -0.6344
vn -0.6344 0.0000 -0.7730
vn -0.4714 0.0000 -0.8819
vn -0.2903 0.0000 -0.9569
vn -0.0980 0.0000 -0.9952
vn 0.0980 0.0000 -0.9952
vn 0.2903 0.0000 -0.9569
vn 0.4714 0.0000 -0.8819
vn 0.6344 0.0000 -0.7730
vn 0.7730 0.0000 -0.6344
vn 0.8819 0.0000 -0.4714
vn 0.9569 0.0000 -0.2903
vn 0.9952 0.0000 -0.0980
vn 0.9952 0.0000 0.0980
vn 0.9569 0.0000 0.2903
vn 0.8819 0.0000 0.4714
vn 0.7730 0.0000 0.6344
vn 0.6344 0.0000 0.7730
vn 0.4714 0.0000 0.8819
vn 0.2903 0.0000 0.9569
vn 0.0980 0.0000 0.9952
vn -0.5996 0.7794 -0.1819
vn 0.2953 0.7794 -0.5526
vn 0.4843 0.7794 0.3975
vn -0.1819 0.7794 0.5996
vn -0.5526 0.7794 0.2953
vn -0.1819 0.7794 -0.5996
vn 0.6235 0.7794 -0.0614
vn -0.0614 0.7794 0.6235
vn -0.5526 0.7794 -0.2953
vn 0.3975 0.7794 -0.4843
vn 0.3975 0.7794 0.4843
vn -0.5996 0.7794 0.1819
vn -0.0614 0.7794 -0.6235
vn 0.6235 0.7794 0.0614
vn -0.4843 0.7794 -0.3975
vn 0.4843 0.7794 -0.3975
vn 0.2953 0.7794 0.5526
vn -0.6235 0.7794 0.0614
vn 0.0614 0.7794 -0.6235
vn 0.5996 0.7794 0.1819
vn -0.3975 0.7794 0.4843
vn -0.3975 0.7794 -0.4843
vn 0.5526 0.7794 -0.2953
vn 0.1819 0.7794 0.5996
vn -0.6235 0.7794 -0.0614
vn 0.1819 0.7794 -0.5996
vn 0.5526 0.7794 0.2953
vn -0.4843 0.7794 0.3975
vn -0.2953 0.7794 -0.5526
vn 0.5996 0.7794 -0.1819
vn -0.2953 0.7794 0.5526
vn 0.0614 0.7794 0.6235
vn 0.0000 1.0000 -0.0000
usemtl BasePrimary
s off
f 6/1/1 5/2/1 3/3/1 4/4/1
f 10/5/2 9/6/2 7/7/2 8/8/2
f 8/8/3 7/7/3 5/2/3 6/1/3
f 4/4/4 3/3/4 1/9/4 2/10/4
f 2/10/5 1/9/5 12/11/5 11/12/5
f 11/12/6 12/11/6 14/13/6 13/14/6
f 13/14/7 14/13/7 16/15/7 15/16/7
f 15/16/8 16/15/8 18/17/8 17/18/8
f 17/18/9 18/17/9 20/19/9 19/20/9
f 19/20/10 20/19/10 22/21/10 21/22/10
f 21/22/11 22/21/11 24/23/11 23/24/11
f 23/24/12 24/23/12 26/25/12 25/26/12
f 25/26/13 26/25/13 28/27/13 27/28/13
f 27/28/14 28/27/14 30/29/14 29/30/14
f 29/30/15 30/29/15 32/31/15 31/32/15
f 31/32/16 32/31/16 34/33/16 33/34/16
f 33/34/17 34/33/17 36/35/17 35/36/17
f 35/36/18 36/35/18 38/37/18 37/38/18
f 37/38/19 38/37/19 40/39/19 39/40/19
f 39/40/20 40/39/20 42/41/20 41/42/20
f 41/42/21 42/41/21 44/43/21 43/44/21
f 43/44/22 44/43/22 46/45/22 45/46/22
f 45/46/23 46/45/23 48/47/23 47/48/23
f 47/48/24 48/47/24 50/49/24 49/50/24
f 49/50/25 50/49/25 52/51/25 51/52/25
f 51/52/26 52/51/26 54/53/26 53/54/26
f 53/54/27 54/53/27 56/55/27 55/56/27
f 55/56/28 56/55/28 58/57/28 57/58/28
f 57/58/29 58/57/29 60/59/29 59/60/29
f 59/60/30 60/59/30 62/61/30 61/62/30
f 61/62/31 62/61/31 64/63/31 63/64/31
f 63/64/32 64/63/32 9/6/32 10/5/32
f 22/21/33 20/19/33 74/65/33 75/66/33
f 40/39/34 38/37/34 83/67/34 84/68/34
f 58/57/35 56/55/35 92/69/35 93/70/35
f 5/2/36 7/7/36 67/71/36 66/72/36
f 14/13/37 12/11/37 70/73/37 71/74/37
f 32/31/38 30/29/38 79/75/38 80/76/38
f 50/49/39 48/47/39 88/77/39 89/78/39
f 7/7/40 9/6/40 68/79/40 67/71/40
f 24/23/41 22/21/41 75/66/41 76/80/41
f 42/41/42 40/39/42 84/68/42 85/81/42
f 60/59/43 58/57/43 93/70/43 94/82/43
f 16/15/44 14/13/44 71/74/44 72/83/44
f 34/33/45 32/31/45 80/76/45 81/84/45
f 52/51/46 50/49/46 89/78/46 90/85/46
f 26/25/47 24/23/47 76/80/47 77/86/47
f 44/43/48 42/41/48 85/81/48 86/87/48
f 62/61/49 60/59/49 94/82/49 95/88/49
f 18/17/50 16/15/50 72/83/50 73/89/50
f 36/35/51 34/33/51 81/84/51 82/90/51
f 54/53/52 52/51/52 90/85/52 91/91/52
f 1/9/53 3/3/53 65/92/53 69/93/53
f 28/27/54 26/25/54 77/86/54 78/94/54
f 46/45/55 44/43/55 86/87/55 87/95/55
f 64/63/56 62/61/56 95/88/56 96/96/56
f 20/19/57 18/17/57 73/89/57 74/65/57
f 38/37/58 36/35/58 82/90/58 83/67/58
f 56/55/59 54/53/59 91/91/59 92/69/59
f 12/11/60 1/9/60 69/93/60 70/73/60
f 30/29/61 28/27/61 78/94/61 79/75/61
f 48/47/62 46/45/62 87/95/62 88/77/62
f 3/3/63 5/2/63 66/72/63 65/92/63
f 9/6/64 64/63/64 96/96/64 68/79/64
f 69/93/65 65/92/65 66/72/65 67/71/65 68/79/65 96/96/65 95/88/65 94/82/65 93/70/65 92/69/65 91/91/65 90/85/65 89/78/65 88/77/65 87/95/65 86/87/65 85/81/65 84/68/65 83/67/65 82/90/65 81/84/65 80/76/65 79/75/65 78/94/65 77/86/65 76/80/65 75/66/65 74/65/65 73/89/65 72/83/65 71/74/65 70/73/65
