# Blender v2.90.1 OBJ File: ''
# www.blender.org
mtllib TurretProbe.mtl
o Turret.001_Turret
v 0.000000 0.068418 0.230700
v 0.000000 -0.141421 0.141421
v 0.000000 -0.184776 0.076537
v -0.054120 0.184776 0.054120
v -0.100000 0.141421 0.100000
v -0.130656 0.076537 0.130656
v -0.141421 0.000000 0.141421
v -0.130656 -0.076537 0.130656
v -0.100000 -0.141421 0.100000
v -0.054120 -0.184776 0.054120
v -0.076537 0.184776 0.000000
v -0.141421 0.141421 0.000000
v -0.184776 0.076537 0.000000
v -0.200000 0.000000 0.000000
v -0.184776 -0.076537 0.000000
v -0.141421 -0.141421 0.000000
v -0.076537 -0.184776 0.000000
v -0.054120 0.184776 -0.054120
v -0.100000 0.141421 -0.100000
v -0.130656 0.076537 -0.130656
v -0.141421 0.000000 -0.141421
v -0.130656 -0.076537 -0.130656
v -0.100000 -0.141421 -0.100000
v -0.054120 -0.184776 -0.054120
v -0.000000 0.184776 -0.076537
v 0.000000 0.141421 -0.141421
v -0.000000 0.076537 -0.184776
v -0.000000 0.000000 -0.200000
v -0.000000 -0.076537 -0.184776
v 0.000000 -0.141421 -0.141421
v 0.000000 -0.184776 -0.076537
v 0.054120 0.184776 -0.054120
v 0.100000 0.141421 -0.100000
v 0.130656 0.076537 -0.130656
v 0.141421 0.000000 -0.141421
v 0.130656 -0.076537 -0.130656
v 0.100000 -0.141421 -0.100000
v 0.054120 -0.184776 -0.054120
v 0.076537 0.184776 0.000000
v 0.141421 0.141421 0.000000
v 0.184776 0.076537 0.000000
v 0.200000 0.000000 0.000000
v 0.184776 -0.076537 0.000000
v 0.141421 -0.141421 0.000000
v 0.076537 -0.184776 0.000000
v 0.054120 0.184776 0.054120
v 0.100000 0.141421 0.100000
v 0.130656 0.076537 0.130656
v 0.141421 0.000000 0.141421
v 0.130656 -0.076537 0.130656
v 0.100000 -0.141421 0.100000
v 0.054120 -0.184776 0.054120
v 0.000000 0.200000 0.000000
v 0.000000 0.184776 0.076537
v -0.000000 0.141421 0.141421
v 0.000000 0.076537 0.184776
v 0.000000 -0.076537 0.184776
v -0.027060 -0.184776 0.065328
v -0.050000 -0.141421 0.120711
v -0.070711 0.000000 0.170711
v -0.065328 0.076537 0.157716
v -0.050000 0.141421 0.120711
v -0.027060 0.184776 0.065328
v 0.065328 0.076537 0.157716
v 0.050000 0.141421 0.120711
v 0.027060 0.184776 0.065328
v 0.027060 -0.184776 0.065328
v 0.050000 -0.141421 0.120711
v 0.070711 0.000000 0.170711
v 0.000000 -0.068417 0.230700
v -0.063210 0.000000 0.216635
v -0.065328 -0.076537 0.157716
v 0.065328 -0.076537 0.157716
v 0.063210 0.000000 0.216635
v 0.000000 0.068418 0.350683
v 0.000000 -0.068417 0.350683
v -0.063210 0.000000 0.364749
v -0.065328 0.076537 0.354386
v -0.065328 -0.076537 0.354386
v 0.065328 0.076537 0.354386
v 0.065328 -0.076537 0.354386
v 0.063210 0.000000 0.364749
v 0.000000 0.030615 0.354093
v 0.000000 -0.030615 0.354093
v -0.028284 0.000000 0.365345
v -0.026131 0.030615 0.375741
v -0.026131 -0.030615 0.375741
v 0.026131 0.030615 0.375741
v 0.026131 -0.030615 0.375741
v 0.028284 0.000000 0.365345
v 0.000000 0.030615 0.215818
v 0.000000 -0.030615 0.215818
v -0.028284 0.000000 0.204566
v -0.026131 0.030615 0.194171
v -0.026131 -0.030615 0.194171
v 0.026131 0.030615 0.194171
v 0.026131 -0.030615 0.194171
v 0.028284 0.000000 0.204566
vt 0.582759 0.896088
vt 0.513261 0.907453
vt 0.582759 0.854615
vt 0.721756 0.907453
vt 0.652258 0.896088
vt 0.652258 0.854615
vt 0.809610 0.980896
vt 0.750290 0.956645
vt 0.750290 0.915352
vt 0.256442 0.823929
vt 0.315763 0.848155
vt 0.315763 0.889632
vt 0.506152 0.975349
vt 0.446832 0.999574
vt 0.506152 0.933872
vt 0.582759 0.733416
vt 0.652258 0.722051
vt 0.582760 0.774888
vt 0.809610 0.828888
vt 0.868931 0.804636
vt 0.809610 0.870181
vt 0.978694 0.989598
vt 0.909196 0.978233
vt 0.909196 0.936760
vt 0.446832 0.823504
vt 0.506152 0.826455
vt 0.652258 0.722051
vt 0.721756 0.731430
vt 0.315763 0.997048
vt 0.256442 1.000000
vt 0.909196 0.804195
vt 0.978694 0.813574
vt 0.652258 0.898074
vt 0.582759 0.907453
vt 0.513261 0.731430
vt 0.582759 0.722051
vt 0.868931 0.980896
vt 0.809610 0.977713
vt 0.750290 0.807820
vt 0.809610 0.804636
vt 0.708776 0.129934
vt 0.649456 0.137211
vt 0.685048 0.096048
vt 0.708776 0.096048
vt 0.768097 0.137211
vt 0.732504 0.096048
vt 0.651380 0.068606
vt 0.683093 0.068606
vt 0.768097 0.000000
vt 0.766173 0.068606
vt 0.734459 0.068606
vt 0.732504 0.041163
vt 0.708776 0.007278
vt 0.708776 0.041163
vt 0.649456 0.000000
vt 0.685048 0.041163
vt 0.851494 0.153310
vt 0.823695 0.162508
vt 0.823695 0.000000
vt 0.851494 0.009410
vt 0.879294 0.000000
vt 0.903022 0.019380
vt 0.903022 0.143172
vt 0.879294 0.162552
vt 0.721756 0.741452
vt 0.745484 0.722051
vt 0.745484 0.884778
vt 0.721756 0.865376
vt 0.950478 0.162727
vt 0.926750 0.143326
vt 0.926750 0.019401
vt 0.950478 0.000000
vt 0.879294 0.162508
vt 0.879294 0.000000
vt 0.823695 0.162508
vt 0.795896 0.153310
vt 0.795896 0.009410
vt 0.823695 0.000000
vt 0.926750 0.000000
vt 0.926750 0.162552
vt 0.768097 0.162508
vt 0.768097 0.000000
vt 0.562685 0.253533
vt 0.538957 0.253533
vt 0.515229 0.253533
vt 0.513274 0.226091
vt 0.515229 0.198649
vt 0.538957 0.198649
vt 0.562685 0.198649
vt 0.564640 0.226091
vt 0.197914 0.185325
vt 0.256831 0.171586
vt 0.256831 0.216404
vt 0.197914 0.243884
vt 0.695410 0.396624
vt 0.630975 0.370282
vt 0.695410 0.344117
vt 0.695410 0.370371
vt 0.000000 0.171585
vt 0.058918 0.185325
vt 0.058918 0.243884
vt 0.000000 0.216404
vt 0.128416 0.190150
vt 0.128416 0.253533
vt 0.750508 0.370639
vt 0.750508 0.322129
vt 0.588238 0.560883
vt 0.547973 0.522186
vt 0.582685 0.487859
vt 0.607024 0.542305
vt 0.035486 0.507067
vt 0.009223 0.448906
vt 0.130387 0.448906
vt 0.128221 0.507067
vt 0.000000 0.380300
vt 0.009222 0.311694
vt 0.130387 0.311695
vt 0.131147 0.380300
vt 0.657804 0.306993
vt 0.681020 0.253533
vt 0.680866 0.487774
vt 0.660159 0.542259
vt 0.035486 0.253533
vt 0.128221 0.253533
vt 0.750290 0.556306
vt 0.697731 0.579348
vt 0.256442 0.380300
vt 0.246144 0.448906
vt 0.216818 0.253533
vt 0.246144 0.311694
vt 0.604620 0.307000
vt 0.216818 0.507067
vt 0.582749 0.253545
vt 0.266045 0.448906
vt 0.256831 0.380300
vt 0.388019 0.380300
vt 0.387247 0.448906
vt 0.266045 0.311695
vt 0.292283 0.253534
vt 0.385046 0.253533
vt 0.387247 0.311695
vt 0.567013 0.344132
vt 0.292283 0.507067
vt 0.385046 0.507067
vt 0.513261 0.322157
vt 0.750290 0.653312
vt 0.697731 0.631847
vt 0.502955 0.448906
vt 0.473606 0.507067
vt 0.502955 0.311695
vt 0.513261 0.380300
vt 0.567013 0.396640
vt 0.513261 0.419178
vt 0.680866 0.721965
vt 0.660159 0.669002
vt 0.473606 0.253534
vt 0.256831 0.126767
vt 0.267129 0.058161
vt 0.382887 0.058161
vt 0.382126 0.126767
vt 0.604620 0.433763
vt 0.582749 0.487774
vt 0.582685 0.722051
vt 0.607024 0.669049
vt 0.267130 0.195372
vt 0.382887 0.195372
vt 0.296456 0.000000
vt 0.385053 0.000000
vt 0.296456 0.253533
vt 0.385053 0.253533
vt 0.513261 0.653518
vt 0.569452 0.631959
vt 0.513274 0.126767
vt 0.504051 0.195372
vt 0.477788 0.000000
vt 0.504051 0.058161
vt 0.657804 0.433757
vt 0.477788 0.253533
vt 0.681020 0.487762
vt 0.197914 0.068208
vt 0.256831 0.081948
vt 0.256831 0.126767
vt 0.197914 0.126767
vt 0.676607 0.415191
vt 0.000000 0.081948
vt 0.058918 0.068208
vt 0.058918 0.126767
vt 0.000000 0.126767
vt 0.715764 0.453456
vt 0.750508 0.419150
vt 0.569452 0.605709
vt 0.513261 0.605015
vt 0.513261 0.556513
vt 0.569452 0.579460
vt 0.058918 0.009650
vt 0.128416 0.000000
vt 0.128416 0.063383
vt 0.197914 0.009650
vt 0.000000 0.037129
vt 0.256831 0.037129
vn -0.9823 -0.0963 0.1605
vn 0.9823 -0.0963 0.1605
vn 0.0719 0.9822 0.1736
vn -0.0719 -0.9822 0.1736
vn 0.0719 -0.9822 0.1736
vn 0.9823 0.0963 0.1605
vn -0.0719 0.9822 0.1736
vn -0.9823 0.0963 0.1605
vn -0.1233 -0.9924 0.0000
vn 0.9996 0.0277 0.0000
vn 0.1233 -0.9924 0.0000
vn -0.9996 -0.0277 0.0000
vn 0.9996 -0.0277 0.0000
vn -0.9996 0.0277 0.0000
vn 0.1233 0.9924 0.0000
vn -0.1233 0.9924 0.0000
vn -0.2780 -0.3898 0.8780
vn 0.2780 -0.3898 0.8780
vn 0.2841 0.0002 0.9588
vn -0.2841 -0.0002 0.9588
vn 0.2780 0.3898 0.8780
vn -0.2841 0.0002 0.9588
vn 0.2841 -0.0002 0.9588
vn -0.2780 0.3898 0.8780
vn -0.9975 -0.0702 0.0000
vn 0.0000 -1.0000 0.0000
vn 0.0000 1.0000 0.0000
vn -0.9975 0.0702 0.0000
vn 0.9975 -0.0702 0.0000
vn 0.9975 0.0702 0.0000
vn 0.0000 -0.0000 1.0000
vn -0.3256 0.5253 0.7862
vn -0.0805 0.9776 0.1945
vn -0.3256 -0.5253 0.7862
vn -0.3764 0.1807 0.9087
vn -0.2243 0.8103 0.5414
vn -0.2243 -0.8103 0.5414
vn -0.3764 -0.1807 0.9087
vn -0.7862 -0.5253 0.3256
vn -0.9087 0.1807 0.3764
vn -0.5414 0.8103 0.2243
vn -0.5414 -0.8103 0.2243
vn -0.9087 -0.1807 0.3764
vn -0.7862 0.5253 0.3256
vn -0.1945 0.9776 0.0805
vn -0.5414 -0.8103 -0.2243
vn -0.9087 -0.1807 -0.3764
vn -0.7862 0.5253 -0.3256
vn -0.1945 0.9776 -0.0805
vn -0.7862 -0.5253 -0.3256
vn -0.9087 0.1807 -0.3764
vn -0.5414 0.8103 -0.2243
vn -0.3764 -0.1807 -0.9087
vn -0.3256 0.5253 -0.7862
vn -0.0805 0.9776 -0.1945
vn -0.3256 -0.5253 -0.7862
vn -0.3764 0.1807 -0.9087
vn -0.2243 0.8103 -0.5414
vn -0.2243 -0.8103 -0.5414
vn 0.3256 -0.5253 -0.7862
vn 0.3764 0.1807 -0.9087
vn 0.2243 0.8103 -0.5414
vn 0.2243 -0.8103 -0.5414
vn 0.3764 -0.1807 -0.9087
vn 0.3256 0.5253 -0.7862
vn 0.0805 0.9776 -0.1945
vn 0.9087 0.1807 -0.3764
vn 0.5414 0.8103 -0.2243
vn 0.5414 -0.8103 -0.2243
vn 0.9087 -0.1807 -0.3764
vn 0.7862 0.5253 -0.3256
vn 0.1945 0.9776 -0.0805
vn 0.7862 -0.5253 -0.3256
vn 0.5414 -0.8103 0.2243
vn 0.9087 -0.1807 0.3764
vn 0.7862 0.5253 0.3256
vn 0.1945 0.9776 0.0805
vn 0.7862 -0.5253 0.3256
vn 0.9087 0.1807 0.3764
vn 0.5414 0.8103 0.2243
vn 0.3256 0.5253 0.7862
vn 0.0805 0.9776 0.1945
vn 0.3256 -0.5253 0.7862
vn 0.2243 0.8103 0.5414
vn 0.2243 -0.8103 0.5414
vn 0.3764 -0.1807 0.9087
vn 0.3764 0.1807 0.9087
usemtl BasePrimary
s off
f 60/1/1 72/2/1 71/3/1
f 73/4/2 69/5/2 74/6/2
f 64/7/3 56/8/3 1/9/3
f 72/10/4 57/11/4 70/12/4
f 57/13/5 73/14/5 70/15/5
f 69/16/6 64/17/6 74/18/6
f 56/19/7 61/20/7 1/21/7
f 61/22/8 60/23/8 71/24/8
f 70/15/9 73/14/9 81/25/9 76/26/9
f 73/4/10 74/6/10 82/27/10 81/28/10
f 72/10/11 70/12/11 76/29/11 79/30/11
f 61/22/12 71/24/12 77/31/12 78/32/12
f 74/18/13 64/17/13 80/33/13 82/34/13
f 71/3/14 72/2/14 79/35/14 77/36/14
f 1/21/15 61/20/15 78/37/15 75/38/15
f 64/7/16 1/9/16 75/39/16 80/40/16
f 76/41/17 81/42/17 89/43/17 84/44/17
f 79/45/18 76/41/18 84/44/18 87/46/18
f 81/42/19 82/47/19 90/48/19 89/43/19
f 78/49/20 77/50/20 85/51/20 86/52/20
f 75/53/21 78/49/21 86/52/21 83/54/21
f 77/50/22 79/45/22 87/46/22 85/51/22
f 82/47/23 80/55/23 88/56/23 90/48/23
f 80/55/24 75/53/24 83/54/24 88/56/24
f 90/57/25 88/58/25 96/59/25 98/60/25
f 88/61/26 83/62/26 91/63/26 96/64/26
f 84/65/27 89/66/27 97/67/27 92/68/27
f 87/69/27 84/70/27 92/71/27 95/72/27
f 89/73/28 90/57/28 98/60/28 97/74/28
f 86/75/29 85/76/29 93/77/29 94/78/29
f 83/62/26 86/79/26 94/80/26 91/63/26
f 85/76/30 87/81/30 95/82/30 93/77/30
f 95/83/31 92/84/31 97/85/31 98/86/31 96/87/31 91/88/31 94/89/31 93/90/31
usemtl Sphere
f 61/91/32 62/92/32 5/93/32 6/94/32
f 54/95/33 53/96/33 4/97/33 63/98/33
f 59/99/34 72/100/34 8/101/34 9/102/34
f 60/103/35 61/91/35 6/94/35 7/104/35
f 62/105/36 63/98/36 4/97/36 5/106/36
f 58/107/37 59/108/37 9/109/37 10/110/37
f 72/100/38 60/103/38 7/104/38 8/101/38
f 9/111/39 8/112/39 15/113/39 16/114/39
f 7/115/40 6/116/40 13/117/40 14/118/40
f 5/106/41 4/97/41 11/119/41 12/120/41
f 10/110/42 9/109/42 16/121/42 17/122/42
f 8/112/43 7/115/43 14/118/43 15/113/43
f 6/116/44 5/123/44 12/124/44 13/117/44
f 4/97/45 53/96/45 11/119/45
f 17/122/46 16/121/46 23/125/46 24/126/46
f 15/113/47 14/118/47 21/127/47 22/128/47
f 13/117/48 12/124/48 19/129/48 20/130/48
f 11/119/49 53/96/49 18/131/49
f 16/114/50 15/113/50 22/128/50 23/132/50
f 14/118/51 13/117/51 20/130/51 21/127/51
f 12/120/52 11/119/52 18/131/52 19/133/52
f 22/134/53 21/135/53 28/136/53 29/137/53
f 20/138/54 19/139/54 26/140/54 27/141/54
f 18/131/55 53/96/55 25/142/55
f 23/143/56 22/134/56 29/137/56 30/144/56
f 21/135/57 20/138/57 27/141/57 28/136/57
f 19/133/58 18/131/58 25/142/58 26/145/58
f 24/126/59 23/125/59 30/146/59 31/147/59
f 30/144/60 29/137/60 36/148/60 37/149/60
f 28/136/61 27/141/61 34/150/61 35/151/61
f 26/145/62 25/142/62 32/152/62 33/153/62
f 31/147/63 30/146/63 37/154/63 38/155/63
f 29/137/64 28/136/64 35/151/64 36/148/64
f 27/141/65 26/140/65 33/156/65 34/150/65
f 25/142/66 53/96/66 32/152/66
f 35/157/67 34/158/67 41/159/67 42/160/67
f 33/153/68 32/152/68 39/161/68 40/162/68
f 38/155/69 37/154/69 44/163/69 45/164/69
f 36/165/70 35/157/70 42/160/70 43/166/70
f 34/158/71 33/167/71 40/168/71 41/159/71
f 32/152/72 53/96/72 39/161/72
f 37/169/73 36/165/73 43/166/73 44/170/73
f 45/164/74 44/163/74 51/171/74 52/172/74
f 43/166/75 42/160/75 49/173/75 50/174/75
f 41/159/76 40/168/76 47/175/76 48/176/76
f 39/161/77 53/96/77 46/177/77
f 44/170/78 43/166/78 50/174/78 51/178/78
f 42/160/79 41/159/79 48/176/79 49/173/79
f 40/162/80 39/161/80 46/177/80 47/179/80
f 64/180/81 65/181/81 55/182/81 56/183/81
f 46/177/82 53/96/82 54/95/82 66/184/82
f 68/185/83 73/186/83 57/187/83 2/188/83
f 65/189/84 66/184/84 54/95/84 55/190/84
f 67/191/85 68/192/85 2/193/85 3/194/85
f 10/110/26 17/122/26 24/126/26 31/147/26 38/155/26 45/164/26 52/172/26 67/191/26 3/194/26 58/107/26
f 3/194/37 2/193/37 59/108/37 58/107/37
f 55/190/36 54/95/36 63/98/36 62/105/36
f 2/188/34 57/187/34 72/100/34 59/99/34
f 56/183/32 55/182/32 62/92/32 61/91/32
f 50/195/86 49/196/86 69/197/86 73/186/86
f 52/172/85 51/171/85 68/192/85 67/191/85
f 47/179/84 46/177/84 66/184/84 65/189/84
f 49/196/87 48/198/87 64/180/87 69/197/87
f 51/199/83 50/195/83 73/186/83 68/185/83
f 48/198/81 47/200/81 65/181/81 64/180/81
