# Blender v2.90.1 OBJ File: ''
# www.blender.org
mtllib Pipe_Quarter.mtl
o Cube_Cube.001
v 0.500000 3.500000 -3.000000
v 0.500000 0.000000 0.500000
v 0.500000 0.682808 0.432743
v 0.500000 1.339386 0.233567
v 0.500000 1.944490 -0.089868
v 0.500000 2.474862 -0.525138
v 0.500000 2.910132 -1.055509
v 0.500000 3.233567 -1.660614
v 0.500000 3.432742 -2.317192
v -0.500000 3.500000 -3.000000
v -0.500000 0.000000 0.500000
v -0.500000 0.682808 0.432743
v -0.500000 1.339386 0.233567
v -0.500000 1.944490 -0.089868
v -0.500000 2.474862 -0.525138
v -0.500000 2.910132 -1.055509
v -0.500000 3.233567 -1.660614
v -0.500000 3.432742 -2.317192
v 0.500000 3.000000 -3.000000
v 0.500000 0.000000 0.000000
v 0.500000 0.585271 -0.057644
v 0.500000 1.148050 -0.228361
v 0.500000 1.666711 -0.505591
v 0.500000 2.121320 -0.878680
v 0.500000 2.494409 -1.333289
v 0.500000 2.771638 -1.851950
v 0.500000 2.942356 -2.414729
v -0.500000 3.000000 -3.000000
v -0.500000 0.000000 0.000000
v -0.500000 0.585271 -0.057644
v -0.500000 1.148050 -0.228361
v -0.500000 1.666711 -0.505591
v -0.500000 2.121320 -0.878680
v -0.500000 2.494409 -1.333289
v -0.500000 2.771638 -1.851950
v -0.500000 2.942356 -2.414729
vt 0.000000 0.000000
vt 0.000000 0.000000
vt 0.000000 0.000000
vt 0.000000 0.000000
vt 0.000000 0.000000
vt 0.000000 0.000000
vt 0.000000 0.000000
vt 0.000000 0.000000
vt 0.000000 0.000000
vt 0.000000 0.000000
vt 0.000000 0.000000
vt 0.000000 0.000000
vt 0.000000 0.000000
vt 0.000000 0.000000
vt 0.000000 0.000000
vt 0.000000 0.000000
vt 0.000000 0.000000
vt 0.000000 0.000000
vt 0.000000 0.000000
vt 0.000000 0.000000
vt 0.000000 0.000000
vt 0.000000 0.000000
vt 0.000000 0.000000
vt 0.000000 0.000000
vt 0.000000 0.000000
vt 0.000000 0.000000
vt 0.000000 0.000000
vt 0.000000 0.000000
vt 0.000000 0.000000
vt 0.000000 0.000000
vt 0.000000 0.000000
vt 0.000000 0.000000
vt 0.000000 0.000000
vt 0.000000 0.000000
vt 0.000000 0.000000
vt 0.000000 0.000000
vn 0.0000 0.0980 0.9952
vn 0.0000 0.2903 0.9569
vn 0.0000 0.4714 0.8819
vn 0.0000 0.6344 0.7730
vn 0.0000 0.7730 0.6344
vn 0.0000 0.8819 0.4714
vn 0.0000 0.9569 0.2903
vn -0.0000 0.9952 0.0980
vn -0.0000 -0.0980 -0.9952
vn -0.0000 -0.2903 -0.9569
vn -0.0000 -0.4714 -0.8819
vn -0.0000 -0.6344 -0.7730
vn 0.0000 -0.7730 -0.6344
vn 0.0000 -0.8819 -0.4714
vn 0.0000 -0.9569 -0.2903
vn 0.0000 -0.9952 -0.0980
vn 1.0000 -0.0000 0.0000
vn 0.0000 0.0000 -1.0000
vn -0.0000 -1.0000 0.0000
vn -1.0000 0.0000 -0.0000
usemtl None
s off
f 2/1/1 3/2/1 12/3/1 11/4/1
f 3/2/2 4/5/2 13/6/2 12/3/2
f 4/5/3 5/7/3 14/8/3 13/6/3
f 5/7/4 6/9/4 15/10/4 14/8/4
f 6/9/5 7/11/5 16/12/5 15/10/5
f 7/11/6 8/13/6 17/14/6 16/12/6
f 8/13/7 9/15/7 18/16/7 17/14/7
f 9/15/8 1/17/8 10/18/8 18/16/8
f 20/19/9 29/20/9 30/21/9 21/22/9
f 21/22/10 30/21/10 31/23/10 22/24/10
f 22/24/11 31/23/11 32/25/11 23/26/11
f 23/26/12 32/25/12 33/27/12 24/28/12
f 24/28/13 33/27/13 34/29/13 25/30/13
f 25/30/14 34/29/14 35/31/14 26/32/14
f 26/32/15 35/31/15 36/33/15 27/34/15
f 27/34/16 36/33/16 28/35/16 19/36/16
f 3/2/17 2/1/17 20/19/17 21/22/17
f 4/5/17 3/2/17 21/22/17 22/24/17
f 5/7/17 4/5/17 22/24/17 23/26/17
f 6/9/17 5/7/17 23/26/17 24/28/17
f 7/11/17 6/9/17 24/28/17 25/30/17
f 8/13/17 7/11/17 25/30/17 26/32/17
f 9/15/17 8/13/17 26/32/17 27/34/17
f 1/17/17 9/15/17 27/34/17 19/36/17
f 10/18/18 1/17/18 19/36/18 28/35/18
f 2/1/19 11/4/19 29/20/19 20/19/19
f 11/4/20 12/3/20 30/21/20 29/20/20
f 12/3/20 13/6/20 31/23/20 30/21/20
f 13/6/20 14/8/20 32/25/20 31/23/20
f 14/8/20 15/10/20 33/27/20 32/25/20
f 15/10/20 16/12/20 34/29/20 33/27/20
f 16/12/20 17/14/20 35/31/20 34/29/20
f 17/14/20 18/16/20 36/33/20 35/31/20
f 18/16/20 10/18/20 28/35/20 36/33/20
